<svg id="Layer_1" xmlns="http://www.w3.org/2000/svg" width="512" height="512" viewBox="0 0 512 512"><style>.st0{fill:none;stroke:#b35047}</style><path class="st0" d="M32 0v512M64 0v512M96 0v512M128 0v512M160 0v512M192 0v512M224 0v512M256 0v512M288 0v512M320 0v512M352 0v512M384 0v512M416 0v512M448 0v512M480 0v512M0 32h512M0 64h512M0 96h512M0 128h512M0 160h512M0 192h512M0 224h512M0 256h512M0 288h512M0 320h512M0 352h512M0 384h512M0 416h512M0 448h512M0 480h512M0 0h512v512H0z" id="svgGrid"/><path d="M328 232H184l8 8h128l8-8zm65.4-155.9l-3.9 3.9h7.8l-3.9-3.9zM344 216H168l8 8h160l8-8zm80-80h-90.5l-8 8H416l8-8zm-18.7-48h-23.8l-8 8h39.8l-8-8zm33.3 33.4l-1.4-1.4h-87.8l-8 8H432l6.6-6.6zM421.3 104h-55.8l-8 8h71.8l-8-8zM280 280h-48l8 8h32l8-8zm-24 77.5L118.6 220.1l-45.3 45.3L256 448l182.6-182.6-45.3-45.3L256 357.5zm40-93.5h-80l8 8h64l8-8zm16-16H200l8 8h96l8-8zm-48 48h-16l8 8 8-8zM96 144h90.5l-8-8H88l8 8zm34.5-56h-23.8l-8 8h39.8l-8-8zm-11.9-11.9l-3.9 3.9h7.8l-3.9-3.9zM112 160h90.5l-8-8H104l8 8zm58.5-32l-8-8H74.7l-1.4 1.4L80 128h90.5zM128 176h90.5l-8-8H120l8 8zm18.5-72H90.7l-8 8h71.8l-8-8zM376 184h-90.5l-8 8H368l8-8zm-232 8h90.5l-8-8H136l8 8zm248-24h-90.5l-8 8H384l8-8zm16-16h-90.5l-8 8H400l8-8zm-48 48h-90.5l-8 8H352l8-8zm-200 8h90.5l-8-8H152l8 8z"/></svg>