<svg id="Layer_1" xmlns="http://www.w3.org/2000/svg" width="512" height="512" viewBox="0 0 512 512"><style>.st0{fill:none;stroke:#b35047}</style><path class="st0" d="M32 0v512M64 0v512M96 0v512M128 0v512M160 0v512M192 0v512M224 0v512M256 0v512M288 0v512M320 0v512M352 0v512M384 0v512M416 0v512M448 0v512M480 0v512M0 32h512M0 64h512M0 96h512M0 128h512M0 160h512M0 192h512M0 224h512M0 256h512M0 288h512M0 320h512M0 352h512M0 384h512M0 416h512M0 448h512M0 480h512M0 0h512v512H0z" id="svgGrid"/><path d="M256 64l182.6 182.6-45.2 45.3L256 154.5 118.6 291.9l-45.2-45.3z"/><path d="M106.7 424h23.8l8-8H98.7l8 8zm-2.7-64h90.5l8-8H112l-8 8zm232-72H176l-8 8h176l-8-8zM118.6 435.9l3.9-3.9h-7.8l3.9 3.9zM88 376h90.5l8-8H96l-8 8zm-14.6 14.6l1.4 1.4h87.8l8-8H80l-6.6 6.6zM90.7 408h55.8l8-8H82.7l8 8zM256 208l-8 8h16l-8-8zm16 16h-32l-8 8h48l-8-8zm32 32h-96l-8 8h112l-8-8zm-16-16h-64l-8 8h80l-8-8zm32 32H192l-8 8h144l-8-8zm61.5 152h23.8l8-8h-39.8l8 8zm34.5-56h-90.5l8 8H424l-8-8zm-22.6 67.9l3.9-3.9h-7.8l3.9 3.9zM432 384h-90.5l8 8h87.8l1.4-1.4-6.7-6.6zm-66.5 24h55.8l8-8h-71.8l8 8zm34.5-56h-90.5l8 8H408l-8-8zm-32-32h-90.5l8 8H376l-8-8zm-216-8h90.5l8-8H160l-8 8zm-16 16h90.5l8-8H144l-8 8zm248 8h-90.5l8 8H392l-8-8zm-264 8h90.5l8-8H128l-8 8zm232-40h-90.5l8 8H360l-8-8z"/></svg>