<?xml version="1.0" encoding="utf-8"?>
<!-- Generator: Adobe Illustrator 21.1.0, SVG Export Plug-In . SVG Version: 6.00 Build 0)  -->
<svg version="1.1" id="Layer_1" xmlns="http://www.w3.org/2000/svg" xmlns:xlink="http://www.w3.org/1999/xlink" x="0px" y="0px"
	 width="512px" height="512px" viewBox="0 0 512 512" style="enable-background:new 0 0 512 512;" xml:space="preserve">
<style type="text/css">
	.st0{fill:none;stroke:#B35047;}
</style>
<g id="svgGrid">
	<line class="st0" x1="32" y1="0" x2="32" y2="512"/>
	<line class="st0" x1="64" y1="0" x2="64" y2="512"/>
	<line class="st0" x1="96" y1="0" x2="96" y2="512"/>
	<line class="st0" x1="128" y1="0" x2="128" y2="512"/>
	<line class="st0" x1="160" y1="0" x2="160" y2="512"/>
	<line class="st0" x1="192" y1="0" x2="192" y2="512"/>
	<line class="st0" x1="224" y1="0" x2="224" y2="512"/>
	<line class="st0" x1="256" y1="0" x2="256" y2="512"/>
	<line class="st0" x1="288" y1="0" x2="288" y2="512"/>
	<line class="st0" x1="320" y1="0" x2="320" y2="512"/>
	<line class="st0" x1="352" y1="0" x2="352" y2="512"/>
	<line class="st0" x1="384" y1="0" x2="384" y2="512"/>
	<line class="st0" x1="416" y1="0" x2="416" y2="512"/>
	<line class="st0" x1="448" y1="0" x2="448" y2="512"/>
	<line class="st0" x1="480" y1="0" x2="480" y2="512"/>
	<line class="st0" x1="0" y1="32" x2="512" y2="32"/>
	<line class="st0" x1="0" y1="64" x2="512" y2="64"/>
	<line class="st0" x1="0" y1="96" x2="512" y2="96"/>
	<line class="st0" x1="0" y1="128" x2="512" y2="128"/>
	<line class="st0" x1="0" y1="160" x2="512" y2="160"/>
	<line class="st0" x1="0" y1="192" x2="512" y2="192"/>
	<line class="st0" x1="0" y1="224" x2="512" y2="224"/>
	<line class="st0" x1="0" y1="256" x2="512" y2="256"/>
	<line class="st0" x1="0" y1="288" x2="512" y2="288"/>
	<line class="st0" x1="0" y1="320" x2="512" y2="320"/>
	<line class="st0" x1="0" y1="352" x2="512" y2="352"/>
	<line class="st0" x1="0" y1="384" x2="512" y2="384"/>
	<line class="st0" x1="0" y1="416" x2="512" y2="416"/>
	<line class="st0" x1="0" y1="448" x2="512" y2="448"/>
	<line class="st0" x1="0" y1="480" x2="512" y2="480"/>
	<rect class="st0" width="512" height="512"/>
</g>
<g>
	<polygon points="256,64 438.6,246.6 393.4,291.9 256,154.5 118.6,291.9 73.4,246.6 	"/>
</g>
<path d="M106.7,424h23.8l8-8H98.7L106.7,424z M104,360h90.5l8-8H112L104,360z M336,288H176l-8,8h176L336,288z M118.6,435.9l3.9-3.9
	h-7.8L118.6,435.9z M88,376h90.5l8-8H96L88,376z M73.4,390.6l1.4,1.4h87.8l8-8H80L73.4,390.6z M90.7,408h55.8l8-8H82.7L90.7,408z
	 M256,208l-8,8h16L256,208z M272,224h-32l-8,8h48L272,224z M304,256h-96l-8,8h112L304,256z M288,240h-64l-8,8h80L288,240z M320,272
	H192l-8,8h144L320,272z M381.5,424h23.8l8-8h-39.8L381.5,424z M416,368h-90.5l8,8H424L416,368z M393.4,435.9l3.9-3.9h-7.8
	L393.4,435.9z M432,384h-90.5l8,8h87.8l1.4-1.4L432,384z M365.5,408h55.8l8-8h-71.8L365.5,408z M400,352h-90.5l8,8H408L400,352z
	 M368,320h-90.5l8,8H376L368,320z M152,312h90.5l8-8H160L152,312z M136,328h90.5l8-8H144L136,328z M384,336h-90.5l8,8H392L384,336z
	 M120,344h90.5l8-8H128L120,344z M352,304h-90.5l8,8H360L352,304z"/>
</svg>
