<?xml version="1.0" encoding="utf-8"?>
<!-- Generator: Adobe Illustrator 21.1.0, SVG Export Plug-In . SVG Version: 6.00 Build 0)  -->
<svg version="1.1" id="Layer_1" xmlns="http://www.w3.org/2000/svg" xmlns:xlink="http://www.w3.org/1999/xlink" x="0px" y="0px"
	 width="512px" height="512px" viewBox="0 0 512 512" style="enable-background:new 0 0 512 512;" xml:space="preserve">
<style type="text/css">
	.st0{fill:none;stroke:#B35047;}
</style>
<g id="svgGrid">
	<line class="st0" x1="32" y1="0" x2="32" y2="512"/>
	<line class="st0" x1="64" y1="0" x2="64" y2="512"/>
	<line class="st0" x1="96" y1="0" x2="96" y2="512"/>
	<line class="st0" x1="128" y1="0" x2="128" y2="512"/>
	<line class="st0" x1="160" y1="0" x2="160" y2="512"/>
	<line class="st0" x1="192" y1="0" x2="192" y2="512"/>
	<line class="st0" x1="224" y1="0" x2="224" y2="512"/>
	<line class="st0" x1="256" y1="0" x2="256" y2="512"/>
	<line class="st0" x1="288" y1="0" x2="288" y2="512"/>
	<line class="st0" x1="320" y1="0" x2="320" y2="512"/>
	<line class="st0" x1="352" y1="0" x2="352" y2="512"/>
	<line class="st0" x1="384" y1="0" x2="384" y2="512"/>
	<line class="st0" x1="416" y1="0" x2="416" y2="512"/>
	<line class="st0" x1="448" y1="0" x2="448" y2="512"/>
	<line class="st0" x1="480" y1="0" x2="480" y2="512"/>
	<line class="st0" x1="0" y1="32" x2="512" y2="32"/>
	<line class="st0" x1="0" y1="64" x2="512" y2="64"/>
	<line class="st0" x1="0" y1="96" x2="512" y2="96"/>
	<line class="st0" x1="0" y1="128" x2="512" y2="128"/>
	<line class="st0" x1="0" y1="160" x2="512" y2="160"/>
	<line class="st0" x1="0" y1="192" x2="512" y2="192"/>
	<line class="st0" x1="0" y1="224" x2="512" y2="224"/>
	<line class="st0" x1="0" y1="256" x2="512" y2="256"/>
	<line class="st0" x1="0" y1="288" x2="512" y2="288"/>
	<line class="st0" x1="0" y1="320" x2="512" y2="320"/>
	<line class="st0" x1="0" y1="352" x2="512" y2="352"/>
	<line class="st0" x1="0" y1="384" x2="512" y2="384"/>
	<line class="st0" x1="0" y1="416" x2="512" y2="416"/>
	<line class="st0" x1="0" y1="448" x2="512" y2="448"/>
	<line class="st0" x1="0" y1="480" x2="512" y2="480"/>
	<rect class="st0" width="512" height="512"/>
</g>
<path d="M328,232H184l8,8h128L328,232z M393.4,76.1l-3.9,3.9h7.8L393.4,76.1z M344,216H168l8,8h160L344,216z M424,136h-90.5l-8,8
	H416L424,136z M405.3,88h-23.8l-8,8h39.8L405.3,88z M438.6,121.4l-1.4-1.4h-87.8l-8,8H432L438.6,121.4z M421.3,104h-55.8l-8,8h71.8
	L421.3,104z M280,280h-48l8,8h32L280,280z M256,357.5L118.6,220.1l-45.3,45.3L256,448l182.6-182.6l-45.3-45.3L256,357.5z M296,264
	h-80l8,8h64L296,264z M312,248H200l8,8h96L312,248z M264,296h-16l8,8L264,296z M96,144h90.5l-8-8H88L96,144z M130.5,88h-23.8l-8,8
	h39.8L130.5,88z M118.6,76.1l-3.9,3.9h7.8L118.6,76.1z M112,160h90.5l-8-8H104L112,160z M170.5,128l-8-8H74.7l-1.4,1.4L80,128H170.5
	z M128,176h90.5l-8-8H120L128,176z M146.5,104H90.7l-8,8h71.8L146.5,104z M376,184h-90.5l-8,8H368L376,184z M144,192h90.5l-8-8H136
	L144,192z M392,168h-90.5l-8,8H384L392,168z M408,152h-90.5l-8,8H400L408,152z M360,200h-90.5l-8,8H352L360,200z M160,208h90.5l-8-8
	H152L160,208z"/>
</svg>
